#!OML:ASF F:\VICON\USERDATA\INSTALL\rory3\rory3.ASF
:FULLY-SPECIFIED
:DEGREES
72
root -0.17319916554489617 18.056403260827118 16.010020487787095 -3.1828729605693162 1.088067981104333 -5.573959687060943
lfemur -11.15546544023173 -0.9063106139740691 -13.73488738969559
ltibia 63.04767473064666
lfoot -5.111938318920734 -3.433633478685027
ltoes -12.917707705033854
rfemur -12.855656140295531 6.965929373822733 29.94590447465574
rtibia 26.547684359248322
rfoot -4.153722023165348 -5.504437766036225
rtoes 8.426674998555784
lowerback 9.9724977869784 -0.3116294446840291 3.753815329495171
upperback 0.7502004913220944 0.530866437690999 2.86477160052511
thorax -4.677397068030078 0.22177050665433762 1.0824021781176147
lowerneck -16.452089458082035 -2.6368006739785 -2.7924897057101115
upperneck 20.711193523847985 -3.118831014316963 1.1763339746245036
head 9.343033987037229 -1.5138022710813979 0.5705927144143812
lclavicle -1.9526035051881043e-15 9.075253789957996e-16
lhumerus -30.853672614491558 -2.263161158391232 83.2558685255863
lradius 31.440965593767025
lwrist 6.194121188089266
lhand -26.908194254441295 25.45164407010521
lfingers 7.12502
lthumb -0.26986897629772916 55.82769500427717
rclavicle -1.957444819630583e-15 9.028030985925929e-16
rhumerus -30.91516154732158 -20.680934128746642 -77.37136251109796
rradius 21.089760260841807
rwrist 10.72933503350062
rhand -17.130707705190176 22.10005893303549
rfingers 7.12502
rthumb 9.184126256510341 -7.565792455543862
73
root -0.29377762440434235 18.168898463539314 16.085444343828943 -3.541552157162779 1.1300643346851893 -6.406456574123371
lfemur -14.993220664919196 -1.6650557445174454 -13.066434843514072
ltibia 63.85443538049112
lfoot -5.425887188265907 -2.833635148241185
ltoes -13.802372866871961
rfemur -9.674103521250123 7.0630076716684345 30.980094284639847
rtibia 25.83175562399972
rfoot -4.929961902882542 -5.6178905365732374
rtoes 8.316069061564209
lowerback 10.011244261413177 -0.44162587655661 4.239806314376746
upperback 0.5295873312286347 0.3874714007860729 2.8564302172000247
thorax -4.880072133458386 0.12315258544838875 0.953304458756043
lowerneck -16.24879100231988 -2.665632147300707 -2.6946119699096633
upperneck 20.70128610452215 -3.1668227886404354 1.128215894924685
head 9.32527695675455 -1.530888290631208 0.5453110613839472
lclavicle -1.9522884703601654e-15 9.078110644887417e-16
lhumerus -31.548937506637444 -2.3023427654212867 83.17594445672647
lradius 30.888738386992543
lwrist 6.203840404451308
lhand -26.719305160588913 25.484641515690736
lfingers 7.12502
lthumb -0.0649963725021323 55.859684743137535
rclavicle -1.9568917150800298e-15 9.031916743429837e-16
rhumerus -30.349723447595608 -19.651851275128234 -78.10248232262805
rradius 21.501432939582234
rwrist 10.055643213769264
rhand -17.123610974990196 21.789277913233377
rfingers 7.12502
rthumb 9.173202662024577 -7.96455488186345
74
root -0.32011721064552784 18.296879999418234 14.610176516189467 -3.3972981889784615 0.407625059170162 -6.234053737714751
lfemur -17.789950994416863 -2.3256329901304498 -13.398264206400059
ltibia 62.12640159492863
lfoot -5.2714273514204235 -1.0932742011662961
ltoes -12.843097231178202
rfemur -7.521940168658063 7.2285138493489 31.131854079014147
rtibia 26.058047927372723
rfoot -5.364174926252508 -5.704807255051871
rtoes 8.227337322164537
lowerback 9.81780434628858 -0.38345669311063346 4.136063171498935
upperback 0.4386167091891257 0.4267437309459873 2.803903454250798
thorax -5.027041602879579 0.10714323978806717 0.7526413386554102
lowerneck -16.09604605747091 -2.713930896808758 -2.6294868669061557
upperneck 20.705465601221686 -3.252912077107813 1.1183504133653488
head 9.30918656271344 -1.5643318362295466 0.5237538298799483
lclavicle -1.952064675177031e-15 9.08001242377801e-16
lhumerus -31.851211797384103 -1.866632304618005 83.05351493561278
lradius 30.121717279368525
lwrist 6.22364181958699
lhand -26.565462901709147 25.42767906465874
lfingers 7.12502
lthumb 0.10667970852321185 55.802331253298
rclavicle -1.9555269789559018e-15 9.0431693067195e-16
rhumerus -29.733416963518238 -18.426386689601056 -78.76464879093692
rradius 22.034988036934056
rwrist 9.226642737690282
rhand -17.13505790525372 21.691099414489653
rfingers 7.12502
rthumb 9.144986388181438 -8.133955379351988
75
root -0.3229983228055981 18.303646236196993 13.651365504868119 -2.944742023347872 -0.009752453398506944 -6.329411200479544
lfemur -19.746770984124552 -3.2235223976459335 -13.514709917890798
ltibia 58.298930942624104
lfoot -6.364716898745737 -0.9415930832683963
ltoes -13.340042725849292
rfemur -5.8606354831070036 7.428474334341331 31.589415878006648
rtibia 26.92231285683713
rfoot -5.740808336030987 -5.799540170745554
rtoes 8.285533542065473
lowerback 9.6345990112256 -0.13881491016748226 4.710403861902426
upperback 0.3977027889776544 0.763644393402089 2.6956815534821827
thorax -5.097341125573343 0.26156877277324264 0.44871504195955925
lowerneck -15.983412428015406 -2.7699357217061 -2.5845047169586413
upperneck 20.715254299995795 -3.351620045793402 1.105443067895315
head 9.294536910209885 -1.6059593642938077 0.4952809934098288
lclavicle -1.9532955202405813e-15 9.068390948509738e-16
lhumerus -31.986723061878944 -1.0563241904964258 82.9178786815302
lradius 29.264578374879736
lwrist 6.357223403759806
lhand -26.493882027531942 25.24980738881081
lfingers 7.12502
lthumb 0.1665790675293426 55.553742351014606
rclavicle -1.9537922315323423e-15 9.057576451496313e-16
rhumerus -29.15135687774578 -17.170206472918085 -79.31781759607637
rradius 22.73273182145405
rwrist 8.139329024984317
rhand -17.211825394234783 21.645677426511607
rfingers 7.12502
rthumb 9.04951865007109 -8.234869652996359
